<?xml version="1.0" encoding="UTF-8"?><svg id="Layer_1" xmlns="http://www.w3.org/2000/svg" viewBox="0 0 617.12 606.13"><defs><style>.cls-1{fill:#fea16f;}.cls-2{fill:#fdefca;}.cls-3{fill:#3b1122;}</style></defs><path class="cls-3" d="M0,303.58C3.47,203.52,43.33,121.63,123.79,60.89,164.29,30.31,210.41,11.43,260.59,3.83c76.6-11.6,148.35,3.13,214.04,44.11,64.64,40.33,107.82,97.67,129.82,170.66,14.71,48.78,16.49,98.32,5.96,148.08-13.6,64.29-45.11,118.62-94.59,161.77-54.12,47.2-117.48,72.88-189.34,77.11-63.39,3.73-122.21-11.36-177.02-42.95-51.87-29.9-90.98-71.76-117.8-125.27-9.06-18.07-16.2-36.86-21.91-56.18-5.47-18.49-7.28-37.65-8.41-56.82-.4-6.8-.06-13.65-.06-20.47-.42-.1-.85-.19-1.27-.29Zm325.75,123.1c-.26-.2-.53-.4-.79-.61l.06-.3-.31,.02c-9.15-8.9-12.63-19.89-12.4-32.46,.17-9.45-.17-18.91-.28-28.36-.05-12.25-9.27-18.02-19.79-12.01-11.05,6.32-22.56,7.23-34.75,4.68-12.26-2.56-22.43-8.91-31.85-16.76-11.61-12.33-19.91-26.48-23.24-43.21-4.46-22.44-1.78-44.01,8.37-64.6,4.69-9.51,4.53-10.18-4.5-15.01-7.81-4.18-13.93-10.2-19.2-17.16-8.95-11.8-13.36-25.2-13.52-39.97-.12-10.73-.02-21.46-.02-32.85-20.63,10.35-38.33,22.79-51.06,41.55-7.09,10.46-10.85,22.18-11.78,34.33-1.06,13.94,4.16,26.61,12.53,37.86,10.01,13.46,23.19,23.3,37.13,32.19,2.78,1.77,4.25,3.79,3.87,6.7-.37,2.8-3.37,2.29-5.28,2.69-19.15,3.99-30.77,15.97-36.81,34.1-3.15,9.44-1.76,19.15-1.79,28.74-.15,38.3-.18,76.6,.1,114.9,.07,9.8,2.63,19.05,11.78,24.86-1.18,2.1,.28,3.52,1.44,4.86,8.3,9.58,18.42,16,31.41,16.02,95.1,.14,190.19,.12,285.29,.13,2.81,0,5.61-.16,8.43-.63,22.56-3.78,38.56-26.88,38.37-47.75-.4-42.96-.23-85.94-.13-128.9,.05-22.97-20.71-43.18-41.06-46.79-5.25-1.8-4.39-4.46-.6-7.39,4.58-3.54,9.48-6.67,14.24-9.98,8.39-4.39,15-10.88,21.09-17.96,17.98-20.92,21.06-47.35,8.07-71.06-12.56-22.94-31.87-38.46-55.21-49.4-1.19-.56-2.39-1.82-4.19-.85,.66,1.23,1.3,2.39,1.91,3.55,17.54,33.38,8.5,69.84-22.9,90.57-4.16,2.74-4.22,4.88-2.64,8.72,4.96,12.1,8.14,24.48,6.84,37.83-2.18,22.28-11.73,39.38-33.14,48.11-4.62,1.88-6.05,4.06-6,8.97,.24,24.98,.37,49.96-.1,74.93-.34,17.77-12.14,31.2-29.49,34.84-9.92,2.08-18.63-1.43-27-6.25-.26-.21-.51-.43-.77-.64l.02-.33-.34,.06Zm-85.2-99.1c.09,.33,.27,.45,.57,.35,1.36,.6,2.76,1.12,4.06,1.83,13.58,7.41,26.15,8.82,40.61-.24,22.27-13.96,46.1,5.6,48.25,27.91,.95,9.9,.11,19.97,.35,29.95,.12,5.12-.08,10.37,1.94,15.24,2.03,4.88,5.87,7.72,11.12,8.01,5.15,.29,8.79-2.33,11.16-6.92,2.41-4.66,2.23-9.67,2.24-14.64,.06-26.8-.01-53.61,.11-80.41,.04-9.96,7.52-17.46,17.21-17.44,3.82,0,7.25-.78,10.3-3.06,5.42-4.05,8.86-9.44,10.41-15.97,2.94-12.33,1.94-24.44-2.53-36.25-2.68-7.08-4.23-14.26-3.7-21.91,.33-4.73,2.15-7.62,6.77-9.27,4.82-1.72,9.66-3.64,13.61-7.17,15.82-14.14,19.78-31.73,14.75-51.7-5.57-22.1-24.4-37.51-44.44-41.89-.53-.18-1.06-.36-1.59-.55-.37-.87-1.04-.92-1.82-.64-9.28-3.55-19.15-4.15-28.84-5.27-29.55-3.42-59.14-3.12-88.56,1.19-9.9,1.45-20.32,1.88-28.98,8.13-1.57-5.64,2.53-8.65,5.81-11.77,4.69-4.45,6.61-9.39,4.27-15.62,.91-2.19,3.08-2.41,4.92-2.95,11.54-3.4,23.42-5.07,35.36-5.96,50.66-3.77,99.95,2.45,147.5,20.85,29.61,11.45,56.36,27.2,76.56,52.3,21.74,27.01,31.14,57,20.18,91.31-4.7,14.72-13.22,27.1-24.24,37.79-1.83,1.78-2.4,2.67-.5,5.04,4.35,5.43,8.14,11.32,12.16,17.02,3.83,9.61,6.6,19.45,6.59,29.92-.01,44.24,.04,88.48,.02,132.72,0,11.85-.46,23.65-6.46,34.38-.33,.38-1.47,.48-.76,1.23,.43,.46,1.2,.12,1.47-.64,8.09-7.21,14.55-15.84,21.03-24.43,20.36-26.96,35.16-56.74,44.27-89.27,3.77-13.46,6.27-27.16,7.9-41.12,1.59-13.58,2.19-27.07,1.58-40.67,.05-.83,.13-1.66,.13-2.49-.2-44.3-12.61-85.36-33.72-123.89-22.19-40.48-52.91-73.26-91.6-98.48-43.55-28.39-91.31-44.05-143.23-46.87-14.56-.79-29.03-.54-43.57,1.82-6.94,1.13-14.19,1.15-21.21,2.44-48.29,8.93-91.79,28.47-129.96,59.41-41.51,33.64-70.35,76.44-88.41,126.4-7.04,19.49-11.11,39.92-13.07,60.69-5.58,59.35,6.25,114.88,36.28,166.41,10.72,18.39,23.29,35.46,38.26,50.88,1.03-2.26-.13-3.86-.76-5.54-2.48-6.61-3.87-13.42-3.87-20.49-.03-45.14,.37-90.3-.26-135.43-.28-19.94,4.17-37.56,18.08-52.2,2.92-3.07,2.62-4.82-.47-7.87-29.68-29.35-37.03-66.24-19.68-102.62,18.92-39.66,52.67-62.38,93.04-76.53,1.18-.41,2.28-.72,2.65,.98-2.16,9.95-1.22,20.02-1.17,30.06-.75,12.42-1.05,24.87,0,37.27,1.23,14.55,7.41,26.35,20.77,33.55,4.13,2.81,8.9,3.26,13.67,3.7,7.52,.7,10.96,3.57,12.86,10.88,.54,2.05,.89,4.15,1.33,6.22-.52,.38-1.46,.73-1.49,1.15-.56,7.75-5.79,13.16-9.45,19.4-9.24,15.76-14.05,32.64-10.96,50.99,2.82,16.77,9.6,31.36,24.95,40.54l.2,.25Zm226.84,204.81c-4.46-.92-8.94-.07-13.4-.08-78.93-.05-157.85-.03-236.78-.02-22.37,0-44.74,0-67.11,0,.18,1.17,1.53,1.41,2.42,1.98,46.46,29.99,97.41,45.67,152.63,46.69,44.31,.82,86.56-8.77,126.6-27.81,12.44-5.92,24.8-12.03,35.58-20.81,.02-.11,.05-.23,.07-.34,0,.13,0,.26-.01,.39Z"/><path class="cls-2" d="M511.19,49.44c.12,3.07-1.86,4.3-4.39,4.34-3.14,.05-5.12-1.93-4.93-5.02,.16-2.57,1.61-5.08,4.67-4.84,3.05,.24,4.48,2.52,4.65,5.52Z"/><path class="cls-2" d="M469.6,265.59c-4.76,3.31-9.66,6.44-14.24,9.98-3.79,2.94-4.66,5.6,.59,7.39-1.07,2.56-3.04,4.48-5.18,5.97-3.67,2.55-3.38,4.52-.14,7.24,8.66,7.26,12.79,16.49,12.73,27.99-.22,40.32-.06,80.64-.15,120.96-.04,17.34-13.63,31.1-31.06,31.11-82.14,.07-164.28,.06-246.41-.07-18.1-.03-31.18-13.17-31.25-31.28-.16-38.65,.06-77.31-.14-115.96-.06-12.28,1.64-23.6,11.62-32.12,1.3-1.11,2.51-2.71,1.15-4.34-2.32-2.75-4.59-5.22-8.82-5.79-11.23-1.51-21.42,11.08-24.82,20.92-3.25,9.41-3.79,19.27-3.83,29.08-.16,38.82-.14,77.64-.09,116.46,.02,10.51,.76,20.95,5.49,30.66,.41,.85,1.05,2.01,.29,2.8-1.11,1.17-2.03-.54-3.12-.55-9.15-5.8-11.71-15.05-11.78-24.86-.29-38.3-.25-76.6-.1-114.9,.04-9.59-1.35-19.3,1.79-28.74,6.04-18.13,17.66-30.12,36.81-34.1,1.91-.4,4.92,.11,5.28-2.69,.38-2.9-1.09-4.93-3.87-6.7-13.94-8.89-27.12-18.73-37.13-32.19-8.37-11.25-13.59-23.93-12.53-37.86,.93-12.16,4.69-23.88,11.78-34.33,12.72-18.77,30.42-31.2,51.06-41.55,0,11.39-.09,22.12,.02,32.85,.16,14.77,4.57,28.16,13.52,39.97,5.27,6.95,11.38,12.97,19.2,17.16,9.03,4.83,9.18,5.5,4.5,15.01-10.15,20.59-12.83,42.16-8.37,64.6,3.33,16.74,11.63,30.88,23.23,43.21-.21,1.51,.79,2.5,1.66,3.45,9.49,10.33,20.63,18.36,34.09,22.44,12.52,3.8,25.32,4.56,37.14-2.32,5.07-2.96,9.13-3.02,13.51,.52,.11,9.46,.46,18.91,.28,28.36-.23,12.56,3.24,23.55,12.39,32.45,0,0-.03,.28-.03,.28h.29c.26,.2,.53,.4,.79,.6,0,0,.01,.32,.01,.32l.31-.06c.26,.21,.51,.43,.76,.63,.61,3.79,4,5.07,6.53,7.03,21.71,16.86,52.85,9.07,58.84-21.47,1.99-10.14,1.75-20.53,1.81-30.83,.1-16.32,.1-32.65-.03-48.97-.03-3.42,.99-5.3,4.31-6.8,16.24-7.35,25.9-20.19,30.42-37.27,4.72-17.83,1.89-35.04-4.31-51.86-1.64-4.44-.88-6.76,3.14-8.78,7.6-3.83,13.5-9.66,18.27-16.61,10.42-15.21,12.33-31.94,8.69-49.64-.49-2.37-.68-4.81-1.08-7.71,1.49,.55,2.49,.74,3.29,1.25,18.44,11.68,29.53,27.8,30.78,50.13,.94,16.82-3.19,32.3-11.22,46.92-2.29,4.17-4.46,8.41-6.68,12.62Zm-176.21,126.76c.14-4.82-4.12-9.57-8.75-9.78-5.05-.22-9.57,4.05-9.85,9.3-.28,5.3,3.73,10.04,8.74,10.33,5.06,.29,9.7-4.35,9.86-9.85Zm141.44,9.91c-5.11-.02-8.5,3.36-8.44,8.39,.07,5.25,3.42,8.87,8.15,8.79,4.98-.08,8.96-4.06,8.86-8.87-.1-5.15-3.35-8.3-8.57-8.32Zm-237.25,8.64c-.05-4.93-2.9-7.79-7.68-7.7-4.6,.09-7.84,3.63-7.75,8.47,.1,4.78,3.23,7.93,7.74,7.77,4.62-.16,7.73-3.61,7.68-8.54Zm236.9-36.25c-.03-4.42-2.74-7.31-6.95-7.38-4.41-.07-7.63,2.98-7.71,7.31-.09,4.65,2.78,7.92,6.99,7.94,4.67,.03,7.7-3.08,7.67-7.87ZM187.23,241.12c-.01-4.4-2.24-7.21-5.79-7.31-4.08-.12-7.79,3.41-7.85,7.45-.06,4.22,2.61,7.04,6.64,7.01,4.56-.03,7.01-2.53,7-7.15Zm91.09,196.07c-.51-3.14-2.07-5.64-5.39-5.35-3.26,.29-5.39,2.66-5.31,6.08,.07,3.26,2.15,5.35,5.37,5.29,3.62-.07,4.94-2.78,5.32-6.02Zm135.1-19.17c2.74-.61,3.77-2.62,3.75-5.06-.02-2.97-1.83-4.55-4.77-4.34-2.63,.18-3.7,2.14-3.54,4.47,.18,2.68,1.61,4.59,4.56,4.94Zm-191.68,21.33c2.65,.11,4.15-1.3,4.25-3.79,.1-2.43-1.08-4.17-3.82-4.16-2.72,0-4.44,1.32-4.54,4.14-.1,2.74,1.61,3.77,4.12,3.82Zm12.65-36.47c-.24-2.07-1.15-4.04-3.83-3.98-2.39,.05-4.17,1.39-4.13,4.05,.03,2.42,1.12,4.23,3.81,4.35,2.76,.13,3.7-1.73,4.15-4.42Z"/><path class="cls-2" d="M189.84,93.59c-.37-1.71-1.47-1.4-2.65-.98-40.37,14.15-74.12,36.87-93.04,76.53-17.35,36.38-10.01,73.27,19.68,102.62,3.09,3.06,3.39,4.8,.47,7.87-13.91,14.64-18.36,32.26-18.08,52.2,.63,45.14,.23,90.29,.26,135.43,0,7.07,1.39,13.88,3.87,20.49,.63,1.68,1.79,3.28,.76,5.54-14.97-15.41-27.54-32.49-38.26-50.88-30.03-51.52-41.86-107.06-36.28-166.41,1.95-20.77,6.02-41.2,13.07-60.69,18.05-49.96,46.89-92.76,88.41-126.4,38.17-30.94,81.67-50.48,129.96-59.41,7.02-1.3,14.27-1.32,21.21-2.44,14.53-2.36,29-2.61,43.57-1.82,51.92,2.82,99.68,18.48,143.23,46.87,38.69,25.22,69.41,57.99,91.6,98.48,21.12,38.53,33.52,79.59,33.72,123.89,0,.83-.08,1.66-.13,2.48-1.06,.05-1.27,.8-1.45,1.66-2.71,13-5.21,26.05-8.22,38.99-5.73,24.64-12.7,48.89-25.22,71.13-4.07,7.23-8.4,14.32-12.66,21.45-.56,.93-1.15,2.34-2.62,1.62-1.05-.51-.75-1.75-.63-2.7,.68-5.58,1.05-11.23,2.19-16.72,2.87-13.75,2.11-27.62-.08-41.15-3.97-24.53-13.79-47.43-22.27-70.65-.83-2.26-1.58-5.08-4.67-5.74-4.02-5.7-7.81-11.58-12.16-17.02-1.9-2.37-1.34-3.26,.5-5.04,11.02-10.69,19.54-23.07,24.24-37.79,10.96-34.31,1.56-64.29-20.18-91.31-20.2-25.1-46.95-40.85-76.56-52.3-47.55-18.4-96.84-24.62-147.5-20.85-11.94,.89-23.82,2.56-35.36,5.96-1.85,.54-4.01,.76-4.92,2.95-6.46,1.24-9.32,7.12-13.54,11.03-11.21,10.38-25.08,12.28-37.53,4.16-.8-.52-1.8-.72-2.71-1.07Z"/><path class="cls-1" d="M189.84,93.59c.91,.35,1.91,.55,2.71,1.07,12.45,8.12,26.32,6.22,37.53-4.16,4.22-3.91,7.07-9.8,13.54-11.03,2.33,6.24,.42,11.17-4.27,15.63-3.29,3.12-7.39,6.13-5.81,11.77-.1,1.49-.26,2.98-.27,4.48-.02,3.05,1.4,4.21,4.46,3.45,17.44-4.35,35.21-6.22,53.1-7.7,16.67-1.38,33.24-.17,49.85,.29,11.46,.32,22.61,3.16,33.94,4.52,4.4,.53,9.43,.49,13.74,2.76,1.19,.63,2.87,.34,3.64-.84,.99-1.54-.83-2.24-1.53-3.23-1.91-2.69-5.92-3.1-7.13-6.57,20.05,4.38,38.88,19.79,44.44,41.89,5.03,19.97,1.07,37.56-14.75,51.7-3.95,3.53-8.79,5.45-13.61,7.17-4.62,1.65-6.44,4.54-6.77,9.27-.53,7.65,1.02,14.83,3.7,21.91,4.47,11.81,5.47,23.92,2.53,36.25-1.56,6.52-5,11.92-10.41,15.97-3.05,2.28-6.48,3.07-10.3,3.06-9.69-.02-17.17,7.48-17.21,17.44-.12,26.8-.05,53.61-.11,80.41-.01,4.97,.17,9.98-2.24,14.64-2.37,4.59-6.01,7.2-11.16,6.92-5.25-.29-9.09-3.13-11.12-8.01-2.02-4.87-1.82-10.12-1.94-15.24-.24-9.98,.6-20.05-.35-29.95-2.14-22.3-25.98-41.87-48.25-27.91-14.46,9.06-27.03,7.65-40.61,.24-1.3-.71-2.7-1.22-4.06-1.83,0,0-.44,.02-.44,.02l-.13-.37s-.2-.25-.2-.25c-2.08-6.85-4.96-13.38-7.83-19.92-9.05-20.64-10.26-41.04,1.93-61.05,5.92-9.71,13.23-19.36,3.23-30.78-.11-.12-.25-.22-.38-.32-.44-2.08-.8-4.17-1.33-6.22-1.91-7.31-5.34-10.18-12.86-10.88-4.77-.44-9.54-.89-13.67-3.71-.28-.93-.4-1.95-.85-2.79-7.6-14.02-11.1-29.19-11.34-44.95-.14-8.99-2.27-16.66-8.57-23.08-.05-10.04-.99-20.11,1.17-30.06Zm41.57,183.15c.06,9.31,2.67,17.31,6.88,22.79,2.6,3.38,5.97,3.76,9.33,2.13,3.59-1.74,1.8-4.88,.81-7.4-2.19-5.6-3.98-11.31-4.88-17.25-1.05-6.88-3.49-10.81-6.87-9.92-5.48,1.44-5.11,6.23-5.26,9.65Zm-12.08-111.09c-1.56-7.77-3.13-15.73-4.79-23.67-.38-1.8-1.68-2.81-3.57-2.93-2.14-.13-3.87,.52-5.07,2.44-3.83,6.1,.59,24.1,6.88,27.87,3.31,1.98,6.47,.28,6.55-3.71Zm8.66,2.3c-1.97,.46-3.07,2.04-3.03,4.16,.04,2.15,1.17,3.94,3.6,3.84,2.35-.09,3.42-1.82,3.48-4.02,.07-2.43-1.61-3.4-4.05-3.98Z"/><path class="cls-1" d="M132.22,486.04c1.09,.01,2.02,1.73,3.12,.55,.75-.8,.12-1.95-.29-2.8-4.73-9.71-5.47-20.15-5.49-30.66-.06-38.82-.08-77.64,.09-116.46,.04-9.81,.58-19.66,3.83-29.08,3.39-9.83,13.59-22.42,24.82-20.92,4.24,.57,6.51,3.03,8.82,5.79,1.37,1.62,.15,3.23-1.15,4.34-9.98,8.52-11.69,19.84-11.62,32.12,.2,38.65-.02,77.31,.14,115.96,.08,18.11,13.15,31.25,31.25,31.28,82.14,.13,164.28,.14,246.41,.07,17.44-.02,31.03-13.77,31.06-31.11,.08-40.32-.07-80.64,.15-120.96,.06-11.5-4.06-20.73-12.73-27.99-3.25-2.72-3.53-4.68,.14-7.24,2.14-1.49,4.11-3.41,5.18-5.97,20.36,3.62,41.12,23.83,41.07,46.8-.09,42.97-.27,85.94,.13,128.9,.2,20.87-15.81,43.97-38.37,47.75-2.83,.47-5.62,.63-8.43,.63-95.1,0-190.19,0-285.29-.13-12.99-.02-23.11-6.45-31.41-16.02-1.16-1.34-2.61-2.75-1.44-4.86Z"/><path class="cls-1" d="M467.33,532.35c-10.78,8.78-23.14,14.89-35.58,20.81-40.04,19.05-82.29,28.63-126.6,27.81-55.22-1.02-106.17-16.7-152.63-46.69-.9-.58-2.25-.81-2.42-1.98,22.37,0,44.74,0,67.11,0,78.93,0,157.85-.03,236.78,.02,4.47,0,8.94-.84,13.4,.08l-.06-.05Z"/><path class="cls-1" d="M469.6,265.59c2.22-4.21,4.39-8.45,6.68-12.62,8.02-14.62,12.16-30.1,11.22-46.92-1.25-22.33-12.34-38.45-30.78-50.13-.8-.51-1.8-.69-3.29-1.25,.4,2.9,.59,5.34,1.08,7.71,3.64,17.7,1.73,34.43-8.69,49.64-4.77,6.95-10.67,12.78-18.27,16.61-4.01,2.02-4.77,4.34-3.14,8.78,6.2,16.82,9.03,34.03,4.31,51.86-4.52,17.07-14.19,29.92-30.42,37.27-3.32,1.5-4.34,3.38-4.31,6.8,.12,16.32,.12,32.64,.03,48.97-.06,10.31,.18,20.7-1.81,30.83-5.99,30.54-37.13,38.33-58.84,21.47-2.53-1.96-5.92-3.25-6.53-7.03,8.37,4.83,17.08,8.34,27,6.25,17.35-3.64,29.16-17.07,29.49-34.84,.47-24.97,.34-49.96,.1-74.93-.05-4.91,1.38-7.08,6-8.97,21.41-8.73,30.96-25.83,33.14-48.11,1.31-13.35-1.88-25.73-6.84-37.83-1.58-3.84-1.52-5.98,2.64-8.72,31.41-20.72,40.45-57.19,22.9-90.57-.61-1.16-1.24-2.31-1.91-3.55,1.8-.97,3.01,.29,4.19,.85,23.34,10.94,42.65,26.45,55.21,49.4,12.98,23.72,9.91,50.15-8.07,71.06-6.09,7.08-12.7,13.57-21.09,17.96Z"/><path class="cls-1" d="M515.57,294.87c3.08,.66,3.84,3.48,4.67,5.74,8.48,23.22,18.3,46.11,22.27,70.65,2.19,13.52,2.95,27.39,.08,41.15-1.14,5.49-1.51,11.14-2.19,16.72-.12,.95-.42,2.19,.63,2.7,1.47,.72,2.07-.69,2.62-1.62,4.26-7.13,8.59-14.22,12.66-21.45,12.53-22.24,19.49-46.49,25.22-71.13,3.01-12.93,5.5-25.98,8.22-38.99,.18-.86,.39-1.62,1.45-1.66,.61,13.61,0,27.1-1.58,40.68-1.63,13.96-4.13,27.66-7.9,41.12-9.11,32.53-23.91,62.31-44.27,89.27-6.48,8.58-12.94,17.22-21.03,24.43-.2-.24-.44-.43-.71-.58,6.01-10.74,6.46-22.53,6.47-34.38,.02-44.24-.03-88.48-.02-132.72,0-10.47-2.76-20.31-6.59-29.92Z"/><path class="cls-2" d="M383.33,104.01c1.21,3.46,5.22,3.88,7.13,6.57,.7,.99,2.53,1.7,1.53,3.23-.77,1.18-2.45,1.47-3.64,.84-4.31-2.27-9.34-2.23-13.74-2.76-11.33-1.36-22.47-4.2-33.94-4.52-16.61-.46-33.18-1.67-49.85-.29-17.89,1.48-35.66,3.35-53.1,7.7-3.06,.76-4.48-.4-4.46-3.45,0-1.49,.17-2.99,.27-4.48,8.66-6.24,19.08-6.68,28.98-8.13,29.43-4.31,59.02-4.6,88.56-1.19,9.69,1.12,19.56,1.72,28.84,5.27,.36,.9,1.05,.89,1.83,.64,.53,.18,1.06,.36,1.59,.55Z"/><path class="cls-2" d="M237.3,215.27c.13,.11,.27,.2,.38,.32,9.99,11.42,2.69,21.06-3.23,30.78-12.19,20.01-10.98,40.41-1.93,61.05,2.87,6.54,5.75,13.07,7.83,19.92-15.35-9.18-22.13-23.77-24.95-40.54-3.09-18.34,1.72-35.23,10.96-50.99,3.66-6.24,8.89-11.65,9.45-19.4,.03-.42,.97-.77,1.49-1.15Z"/><path class="cls-1" d="M312.03,364.99c-4.38-3.54-8.44-3.47-13.51-.52-11.81,6.88-24.62,6.12-37.14,2.32-13.46-4.09-24.6-12.12-34.09-22.44-.87-.95-1.87-1.94-1.66-3.45,9.43,7.86,19.59,14.2,31.86,16.77,12.2,2.55,23.7,1.63,34.75-4.68,10.52-6.01,19.74-.24,19.79,12.01Z"/><path class="cls-2" d="M188.67,123.65c6.3,6.42,8.43,14.09,8.57,23.08,.25,15.75,3.74,30.93,11.34,44.95,.45,.84,.57,1.85,.85,2.79-13.36-7.2-19.54-19-20.77-33.55-1.04-12.39-.75-24.84,0-37.27Z"/><path class="cls-1" d="M381.74,103.47c-.77,.25-1.46,.25-1.83-.64,.79-.28,1.45-.23,1.83,.64Z"/><path class="cls-1" d="M516.43,492.47c-.26,.76-1.04,1.1-1.47,.64-.71-.75,.42-.85,.75-1.23,.27,.15,.51,.35,.71,.59Z"/><path class="cls-2" d="M240.55,327.59l.13,.37s.44-.02,.44-.02c-.29,.09-.48-.03-.57-.35Z"/><polygon class="cls-1" points="324.95 426.08 324.67 426.09 324.7 425.81 325.02 425.79 324.95 426.08"/><path class="cls-1" d="M326.07,426.95l-.31,.06s-.02-.33-.01-.32c0,0,.34-.06,.34-.06l-.02,.33Z"/><path class="cls-1" d="M467.39,532.4c0-.13,0-.26,.01-.39-.02,.11-.05,.23-.07,.34,0,0,.06,.05,.06,.05Z"/><path class="cls-1" d="M293.39,392.35c-.16,5.51-4.8,10.15-9.86,9.85-5.01-.29-9.02-5.03-8.74-10.33,.28-5.25,4.8-9.52,9.85-9.3,4.64,.21,8.89,4.96,8.75,9.78Z"/><path class="cls-1" d="M434.82,402.26c5.22,.02,8.47,3.17,8.57,8.32,.1,4.81-3.88,8.79-8.86,8.87-4.73,.08-8.08-3.54-8.15-8.79-.06-5.04,3.33-8.41,8.44-8.39Z"/><path class="cls-1" d="M197.57,410.9c.05,4.93-3.06,8.38-7.68,8.54-4.51,.15-7.65-2.99-7.74-7.77-.1-4.83,3.15-8.38,7.75-8.47,4.77-.09,7.63,2.77,7.68,7.7Z"/><path class="cls-1" d="M434.47,374.65c.03,4.79-2.99,7.9-7.67,7.87-4.21-.02-7.08-3.29-6.99-7.94,.09-4.33,3.31-7.39,7.71-7.31,4.2,.07,6.92,2.96,6.95,7.38Z"/><path class="cls-1" d="M187.23,241.12c.01,4.62-2.43,7.11-7,7.15-4.03,.03-6.7-2.79-6.64-7.01,.06-4.04,3.77-7.57,7.85-7.45,3.56,.1,5.78,2.91,5.79,7.31Z"/><path class="cls-1" d="M278.31,437.19c-.38,3.25-1.7,5.96-5.32,6.02-3.22,.06-5.3-2.03-5.37-5.29-.08-3.42,2.05-5.8,5.31-6.08,3.33-.29,4.88,2.21,5.39,5.35Z"/><path class="cls-1" d="M413.42,418.02c-2.95-.34-4.38-2.26-4.56-4.94-.16-2.33,.91-4.29,3.54-4.47,2.95-.2,4.76,1.37,4.77,4.34,.01,2.45-1.02,4.45-3.75,5.06Z"/><path class="cls-1" d="M221.74,439.35c-2.5-.05-4.21-1.08-4.12-3.82,.1-2.82,1.82-4.13,4.54-4.14,2.74,0,3.92,1.74,3.82,4.16-.1,2.49-1.6,3.9-4.25,3.8Z"/><path class="cls-1" d="M234.39,402.88c-.45,2.69-1.4,4.54-4.15,4.42-2.69-.12-3.78-1.93-3.81-4.35-.04-2.66,1.74-4,4.13-4.05,2.68-.06,3.6,1.91,3.83,3.98Z"/><path class="cls-2" d="M231.42,276.74c.15-3.41-.21-8.2,5.26-9.65,3.39-.89,5.82,3.04,6.87,9.92,.9,5.94,2.69,11.65,4.88,17.25,.99,2.52,2.78,5.66-.81,7.4-3.36,1.63-6.73,1.25-9.33-2.13-4.21-5.48-6.82-13.48-6.88-22.79Z"/><path class="cls-2" d="M219.34,165.65c-.08,3.99-3.24,5.69-6.55,3.71-6.29-3.76-10.71-21.77-6.88-27.87,1.21-1.92,2.93-2.57,5.07-2.44,1.89,.12,3.19,1.13,3.57,2.93,1.66,7.94,3.23,15.91,4.79,23.67Z"/><path class="cls-2" d="M227.99,167.94c2.44,.59,4.12,1.55,4.05,3.98-.06,2.21-1.13,3.93-3.48,4.02-2.43,.1-3.55-1.69-3.6-3.84-.04-2.12,1.06-3.7,3.03-4.16Z"/></svg>