<?xml version="1.0" encoding="utf-8"?>
<svg rpl="" fill="currentColor" height="20" icon-name="lock-fill" viewBox="0 0 20 20" width="20" xmlns="http://www.w3.org/2000/svg"> <!--?lit$3630221905$--><!--?lit$3630221905$--><path d="M16.375 8H15V5.312A5.17 5.17 0 0 0 10 0a5.169 5.169 0 0 0-5 5.312V8H3.625A1.629 1.629 0 0 0 2 9.63v7.74A1.629 1.629 0 0 0 3.625 19h12.75A1.629 1.629 0 0 0 18 17.37V9.63A1.629 1.629 0 0 0 16.375 8Zm-3.25 0h-6.25V5.313A3.3 3.3 0 0 1 10 1.875a3.3 3.3 0 0 1 3.125 3.438V8Z"></path><!--?--> </svg>